<svg xmlns="http://www.w3.org/2000/svg" viewBox="0 0 515.48 515.48"><defs><style>.cls-1{fill:#fff;}</style></defs><g id="Layer_2" data-name="Layer 2"><g id="Layer_1-2" data-name="Layer 1"><rect width="515.48" height="515.48" rx="109.16"/><polygon class="cls-1" points="380.4 373.83 343.99 344.06 361.39 387.14 321.34 415.22 257.74 309.79 194.14 415.22 154.08 387.14 171.49 344.06 135.08 373.83 91.51 343.3 137.22 268.13 190.36 257.63 138.82 247.7 94.27 168.88 137.44 140.66 171.13 168.08 159.51 126.2 199.17 100.25 257.74 204.8 316.31 100.25 355.96 126.2 344.35 168.08 378.04 140.66 421.21 168.88 376.61 247.7 325.12 257.63 378.26 268.13 423.97 343.3 380.4 373.83"/></g></g></svg>