<svg width="25" height="25" viewBox="0 0 25 25" fill="currentColor" xmlns="http://www.w3.org/2000/svg">
<path d="M0 0V24.3799H25V0H0ZM3.88492 7.87317H10.2448C10.8954 7.8783 11.5793 8.15986 12.1033 8.70246C12.5857 9.23835 12.869 10.0069 12.883 10.8298C12.8806 11.4617 12.7736 12.1898 12.4008 12.77C12.1403 13.1646 11.7324 13.463 11.2824 13.6336V13.7006C11.7563 13.8339 12.2235 14.1188 12.5565 14.5899C12.9526 15.1663 13.088 15.9436 13.0997 16.7087C13.0949 17.5203 12.8452 18.3894 12.2864 19.0334C11.7896 19.5826 11.0764 19.8969 10.3256 19.9142H3.88479L3.88492 7.87317ZM15.0299 7.89722H19.7601V9.87171H15.0299V7.89722ZM17.2943 10.4623C17.9543 10.4624 18.5398 10.5588 19.0506 10.7525C19.5659 10.9405 19.9996 11.2345 20.3522 11.6333C20.7047 12.0264 20.9709 12.5277 21.1517 13.1374C21.3902 13.9354 21.4354 14.957 21.4309 15.8897H15.9316C15.9316 16.5278 16.0443 17.0233 16.2703 17.3765C16.5009 17.7241 16.8782 17.8968 17.4025 17.8968C17.9007 17.8942 18.4843 17.7144 18.6766 17.0846C18.7264 16.9194 18.7514 16.7438 18.7514 16.5558H21.4309C21.4253 17.5139 21.1511 18.4655 20.433 19.1707C19.6395 19.8969 18.5306 20.1041 17.4636 20.1271C16.8036 20.1271 16.2071 20.0335 15.6737 19.8455C15.1449 19.6518 14.6955 19.355 14.3248 18.9561C13.9541 18.5573 13.6692 18.056 13.4703 17.4521C13.2714 16.8424 13.1713 16.1222 13.1713 15.2904C13.1713 14.4814 13.2683 13.7757 13.4627 13.1717C13.6571 12.5678 13.9326 12.0665 14.2897 11.6676C14.6514 11.2631 15.085 10.9605 15.5913 10.7611C16.1021 10.5617 16.6705 10.4623 17.2943 10.4623ZM6.95035 10.5138V12.5639H9.05915C9.24923 12.5623 9.4301 12.4643 9.56727 12.2909C9.70048 12.1084 9.76577 11.868 9.77021 11.6161V11.4444C9.76883 11.2172 9.69121 10.9824 9.55965 10.7868C9.44008 10.6279 9.26073 10.5253 9.05917 10.5138H6.95035ZM17.4026 12.6841C16.937 12.6841 16.5894 12.8238 16.3589 13.103C16.1328 13.3822 15.9951 13.761 15.9453 14.2396H18.6431C18.6431 13.7553 18.535 13.3765 18.3181 13.103C18.1011 12.8238 17.7958 12.6841 17.4026 12.6841ZM6.95035 15.0518V17.1104H9.2819C9.46983 17.1087 9.64977 17.0117 9.79002 16.846C9.92258 16.6643 9.99112 16.4227 9.99448 16.1712V15.9909C9.99327 15.7616 9.92721 15.5225 9.79002 15.3248C9.6696 15.1649 9.48317 15.0647 9.2819 15.0518H6.95035Z"/>
</svg>
