<svg width="30" height="30" viewBox="0 0 30 30" fill="currentColor" xmlns="http://www.w3.org/2000/svg">
<path d="M20.625 2.8125H9.375C7.63509 2.81436 5.96697 3.50636 4.73667 4.73667C3.50636 5.96697 2.81436 7.63509 2.8125 9.375V20.625C2.81436 22.3649 3.50636 24.033 4.73667 25.2633C5.96697 26.4936 7.63509 27.1856 9.375 27.1875H20.625C22.3649 27.1856 24.033 26.4936 25.2633 25.2633C26.4936 24.033 27.1856 22.3649 27.1875 20.625V9.375C27.1856 7.63509 26.4936 5.96697 25.2633 4.73667C24.033 3.50636 22.3649 2.81436 20.625 2.8125ZM15 20.625C13.8875 20.625 12.7999 20.2951 11.8749 19.677C10.9499 19.0589 10.2289 18.1804 9.80318 17.1526C9.37744 16.1248 9.26604 14.9938 9.48308 13.9026C9.70013 12.8115 10.2359 11.8092 11.0225 11.0225C11.8092 10.2359 12.8115 9.70013 13.9026 9.48308C14.9938 9.26604 16.1248 9.37744 17.1526 9.80318C18.1804 10.2289 19.0589 10.9499 19.677 11.8749C20.2951 12.7999 20.625 13.8875 20.625 15C20.6234 16.4914 20.0303 17.9212 18.9758 18.9758C17.9212 20.0303 16.4914 20.6234 15 20.625ZM22.0312 9.375C21.7531 9.375 21.4812 9.29253 21.25 9.138C21.0187 8.98348 20.8385 8.76386 20.732 8.5069C20.6256 8.24994 20.5978 7.96719 20.652 7.6944C20.7063 7.42162 20.8402 7.17105 21.0369 6.97438C21.2335 6.77771 21.4841 6.64378 21.7569 6.58952C22.0297 6.53526 22.3124 6.56311 22.5694 6.66954C22.8264 6.77598 23.046 6.95622 23.2005 7.18748C23.355 7.41874 23.4375 7.69062 23.4375 7.96875C23.4375 8.34171 23.2893 8.6994 23.0256 8.96312C22.7619 9.22684 22.4042 9.375 22.0312 9.375ZM18.75 15C18.75 15.7417 18.5301 16.4667 18.118 17.0834C17.706 17.7001 17.1203 18.1807 16.4351 18.4645C15.7498 18.7484 14.9958 18.8226 14.2684 18.6779C13.541 18.5333 12.8728 18.1761 12.3483 17.6516C11.8239 17.1272 11.4667 16.459 11.3221 15.7316C11.1774 15.0042 11.2516 14.2502 11.5355 13.5649C11.8193 12.8797 12.2999 12.294 12.9166 11.882C13.5333 11.4699 14.2583 11.25 15 11.25C15.9946 11.25 16.9484 11.6451 17.6516 12.3483C18.3549 13.0516 18.75 14.0054 18.75 15Z" />
</svg>
