<svg width="30" height="30" viewBox="0 0 30 30" fill="currentColor" xmlns="http://www.w3.org/2000/svg">
<path d="M28.7883 9.10078L25.2844 12.6047C24.5766 20.8102 17.6566 27.1875 9.375 27.1875C7.67344 27.1875 6.2707 26.918 5.20547 26.3859C4.34649 25.9559 3.99492 25.4953 3.90703 25.3641C3.82866 25.2465 3.77787 25.1128 3.75844 24.9729C3.73901 24.833 3.75145 24.6905 3.79484 24.556C3.83822 24.4216 3.91143 24.2987 4.00898 24.1965C4.10653 24.0944 4.22592 24.0156 4.3582 23.966C4.38867 23.9543 7.19883 22.875 8.9836 20.8207C7.99381 20.0069 7.12978 19.0513 6.41953 17.9848C4.96641 15.8273 3.33984 12.0797 3.84141 6.4793C3.85731 6.30134 3.92372 6.13164 4.03284 5.99016C4.14195 5.84869 4.28922 5.74134 4.4573 5.68076C4.62537 5.62018 4.80726 5.60889 4.98154 5.64821C5.15583 5.68754 5.31524 5.77584 5.44102 5.90273C5.48203 5.94375 9.34102 9.78164 14.059 11.0262V10.3125C14.0572 9.56413 14.2052 8.82297 14.4942 8.13266C14.7832 7.44235 15.2074 6.81684 15.7418 6.29297C16.2608 5.77468 16.8784 5.3656 17.5581 5.08986C18.2378 4.81412 18.9658 4.67731 19.6992 4.6875C20.6831 4.6972 21.6477 4.96131 22.4993 5.45415C23.3508 5.94698 24.0604 6.65177 24.559 7.5H28.125C28.3105 7.49985 28.4919 7.55476 28.6462 7.65776C28.8005 7.76077 28.9208 7.90724 28.9918 8.07863C29.0629 8.25003 29.0814 8.43865 29.0452 8.6206C29.009 8.80255 28.9195 8.96967 28.7883 9.10078Z" />
</svg>
